# xmcd
#
# Track frame offsets:
#	150
#	12010
#	23507
#	37505
#	50907
#	65287
#	80850
#	100422
#	116017
#	129712
#	141460
#	160162
#	179212
#	194442
#	211962
#	224215
#	247322
#	264040
#	281077
#	300012
#
# Disc length: 4283 seconds
#
# Revision: 1
# Processed by: cddbd v1.4PL0 Copyright (c) Steve Scherf et al.
# Submitted via: EasyCDDAExtractor 5.0.7
#
DISCID=2c10b914
DTITLE=Jerry Jeff Walker - Gypsy Songman
DYEAR=1987
DGENRE=Country
TTITLE0=Gypsy Songman
TTITLE1=Pass It On
TTITLE2=Got Lucky Last Night
TTITLE3=Railroad Lady
TTITLE4=Jaded Lover
TTITLE5=Long Afternoons
TTITLE6=Night Rider's Lament
TTITLE7=Cadillac Cowboy
TTITLE8=Charlie Dunn
TTITLE9=Driftin' Way Of Life
TTITLE10=David and Me
TTITLE11=Mr. Bojangles
TTITLE12=Layin' My Life On The Line
TTITLE13=Hands On The Wheel
TTITLE14=Borderline
TTITLE15=My Old Man
TTITLE16=Then Came The Children
TTITLE17=Django's Lullaby
TTITLE18=She Knows Her Daddy Sings
TTITLE19=Hill Country Rain
EXTD=
EXTT0=
EXTT1=
EXTT2=
EXTT3=
EXTT4=
EXTT5=
EXTT6=
EXTT7=
EXTT8=
EXTT9=
EXTT10=
EXTT11=
EXTT12=
EXTT13=
EXTT14=
EXTT15=
EXTT16=
EXTT17=
EXTT18=
EXTT19=
PLAYORDER=
